<!-- <svg width="260" height="260" viewBox="0 0 260 260" fill="none" xmlns="http://www.w3.org/2000/svg"> -->
<svg width="93" height="36" viewBox="0 0 93 36"  fill="var(--bg-color)" xmlns="http://www.w3.org/2000/svg">
  <style>
    path {
      fill: #000000;
    }

    @media (prefers-color-scheme: dark) {
      path {
        fill: white;
      }
    }
  </style>
<g transform="translate(0.000000,320.000000) scale(0.100000,-0.100000)"
fill="#000000" stroke="none">
<path d="M0 1600 l0 -1600 1600 0 1600 0 0 1600 0 1600 -1600 0 -1600 0 0
-1600z m1875 1510 c329 -66 603 -216 831 -453 616 -640 564 -1651 -115 -2236
-421 -363 -1030 -466 -1552 -262 -209 82 -365 185 -534 355 -134 135 -218 253
-295 411 -107 222 -140 362 -147 625 -4 170 -2 210 16 311 33 182 108 383 201
534 260 425 722 706 1205 733 136 8 301 0 390 -18z"/>
<path d="M1462 3039 c-112 -10 -266 -46 -382 -89 -351 -129 -660 -423 -810
-769 -87 -200 -121 -364 -121 -586 0 -174 16 -281 66 -440 199 -638 838 -1067
1500 -1006 528 49 970 358 1195 833 257 546 145 1198 -281 1627 -312 316 -733
471 -1167 430z m356 -790 l2 -186 173 -6 c107 -3 192 -11 224 -20 174 -50 326
-174 401 -327 23 -47 49 -112 57 -145 19 -76 19 -224 0 -300 -46 -183 -177
-347 -336 -423 -140 -67 -180 -72 -573 -72 l-346 0 0 189 0 189 -182 4 c-166
4 -190 7 -256 30 -101 36 -172 81 -249 157 -199 199 -245 482 -121 741 32 67
56 101 117 160 84 83 138 118 239 156 98 38 153 42 517 40 l330 -1 3 -186z"/>
<path d="M736 2013 c-6 -14 -5 -15 5 -6 7 7 10 15 7 18 -3 3 -9 -2 -12 -12z"/>
<path d="M717 1966 c-4 -10 -5 -21 -2 -24 9 -9 17 6 13 25 -3 17 -4 17 -11 -1z"/>
<path d="M1120 1949 c-81 -32 -124 -136 -92 -220 14 -35 68 -87 100 -97 15 -4
86 -7 157 -7 l130 0 3 168 2 167 -137 -1 c-76 0 -149 -5 -163 -10z"/>
<path d="M695 1890 c-4 -23 -5 -44 -2 -46 3 -3 8 13 12 36 4 23 5 44 2 46 -3
3 -8 -13 -12 -36z"/>
<path d="M2507 1593 c-4 -3 -7 -11 -7 -17 0 -6 5 -5 12 2 6 6 9 14 7 17 -3 3
-9 2 -12 -2z"/>
<path d="M1820 1412 l0 -169 141 4 c154 4 179 11 222 63 27 32 44 103 33 143
-9 39 -49 89 -86 108 -29 16 -58 19 -172 19 l-138 0 0 -168z"/>
<path d="M2517 1551 c-4 -17 -3 -21 5 -13 5 5 8 16 6 23 -3 8 -7 3 -11 -10z"/>
<path d="M2526 1515 c-9 -26 -7 -32 5 -12 6 10 9 21 6 23 -2 3 -7 -2 -11 -11z"/>
</g>
</svg>
