<!-- <svg width="260" height="260" viewBox="0 0 260 260" fill="none" xmlns="http://www.w3.org/2000/svg"> -->
<svg width="93" height="36" viewBox="0 0 93 36"  fill="var(--bg-color)" xmlns="http://www.w3.org/2000/svg">
  <style>
    path {
      fill: #000000;
    }

    @media (prefers-color-scheme: dark) {
      path {
        fill: white;
      }
    }
  </style>
<path d="M150 5.7376C150.09 5.7328 150.165 5.7248 150.242 5.7248C151.714 5.7248 153.186 5.7296 154.658 5.72C154.878 5.7184 154.946 5.7888 154.99 6.0016C155.622 9.032 156.269 12.0608 156.909 15.0912L158.437 22.3296C158.448 22.3792 158.472 22.4256 158.517 22.5488C158.662 22.0032 158.794 21.5264 158.917 21.0496C160.209 16.0401 161.498 11.03 162.786 6.0192C162.842 5.8032 162.922 5.7168 163.165 5.7184C164.88 5.7312 166.597 5.7296 168.312 5.7184C168.549 5.7168 168.632 5.7968 168.688 6.0224C170.053 11.424 171.426 16.8224 172.798 22.2208C172.843 22.3984 172.894 22.5744 173.006 22.7456C173.136 22.1504 173.267 21.5552 173.392 20.96L174.626 15.12L176.165 7.8336C176.301 7.1904 176.435 6.5472 176.584 5.9072C176.6 5.8352 176.706 5.7312 176.77 5.7312C178.285 5.7232 179.8 5.7264 181.317 5.728C181.342 5.728 181.366 5.7408 181.416 5.7536C181.291 6.2992 181.17 6.8448 181.043 7.3888L179.382 14.488L177.272 23.5088C176.773 25.6396 176.275 27.7708 175.779 29.9024C175.746 30.048 175.712 30.1504 175.52 30.1488C173.891 30.1408 172.262 30.144 170.634 30.1424C170.59 30.1424 170.549 30.1328 170.488 30.1264L165.714 11.9344L165.645 11.9296C165.573 12.1904 165.499 12.4496 165.43 12.712C163.93 18.4368 162.427 24.16 160.931 29.8864C160.878 30.0896 160.787 30.1536 160.576 30.152C158.973 30.1421 157.371 30.1427 155.768 30.1536C155.544 30.1552 155.47 30.0704 155.427 29.8736C154.503 25.7464 153.576 21.62 152.645 17.4944C151.782 13.672 150.914 9.8528 150.048 6.032C150.027 5.9408 150.018 5.848 150 5.7376ZM124.347 5.7248H124.634C126.837 5.7248 129.04 5.728 131.245 5.72C131.47 5.7184 131.557 5.7904 131.613 6.0032C132.587 9.728 133.566 13.4496 134.547 17.1728C134.981 18.8208 135.419 20.4688 135.856 22.1168C135.875 22.1904 135.904 22.2624 135.957 22.4192C136.026 22.1904 136.08 22.0352 136.12 21.8768L139.205 9.6464C139.509 8.4384 139.814 7.2304 140.109 6.0192C140.162 5.8 140.25 5.7184 140.49 5.72C142.702 5.7312 144.914 5.7264 147.126 5.7264H147.43V30.1312H143.04V11.0592C143.015 11.0543 142.99 11.05 142.965 11.0464C142.894 11.2976 142.819 11.5472 142.757 11.8L139.475 25.1312C139.085 26.7184 138.694 28.3072 138.312 29.8976C138.269 30.0736 138.211 30.1584 138.008 30.1568C136.632 30.1472 135.256 30.1456 133.88 30.1584C133.653 30.16 133.582 30.0704 133.536 29.8768C132.946 27.4576 132.35 25.0384 131.755 22.6208L128.971 11.304C128.955 11.214 128.91 11.1317 128.843 11.0688V11.3904C128.827 16.3168 128.811 21.2416 128.792 26.168C128.787 27.4128 128.77 28.6576 128.763 29.9008C128.762 30.064 128.738 30.1568 128.539 30.1552C127.198 30.1488 125.856 30.152 124.515 30.1504C124.466 30.1504 124.416 30.136 124.352 30.1264C124.347 21.9952 124.347 13.88 124.347 5.7248ZM63.0928 5.3648H88.2016V30.3296H63.0928V5.3648ZM76.104 26.5344C78.8304 26.5328 81.5552 26.5312 84.2816 26.5376C84.5184 26.5376 84.5936 26.4688 84.5936 26.2272C84.5872 20.8224 84.5888 15.4192 84.5888 10.0144C84.5888 9.6704 84.5856 9.6688 84.2416 9.6688H67.9648C67.5984 9.6688 67.5968 9.6704 67.5968 10.0416V26.1232C67.5968 26.5344 67.5968 26.5344 68.0048 26.5344H76.104ZM120.091 12.4016L115.381 13.5216C115.344 13.384 115.314 13.2544 115.275 13.1264C114.669 11.1232 113.357 9.8528 111.278 9.528C109.184 9.2 107.328 9.736 105.886 11.3792C105.213 12.1472 104.843 13.072 104.603 14.0512C104.171 15.8096 104.174 17.5952 104.277 19.3872C104.344 20.5696 104.525 21.7312 104.958 22.8384C105.754 24.8608 107.253 26.0352 109.387 26.3328C112.115 26.7136 114.162 25.1824 115.064 22.832C115.269 22.3008 115.414 21.7472 115.597 21.1728L120.178 22.6208C120.139 22.768 120.107 22.9072 120.067 23.0432C119.611 24.568 118.973 26.0016 117.966 27.2512C116.733 28.784 115.138 29.7328 113.238 30.2016C111.749 30.5622 110.207 30.649 108.686 30.4576C105.946 30.1344 103.718 28.8768 101.963 26.7728C100.779 25.352 100.062 23.7024 99.6544 21.9072C99.2752 20.24 99.208 18.5504 99.2992 16.856C99.4176 14.6816 99.8624 12.5808 100.922 10.6464C102.323 8.0848 104.461 6.4592 107.256 5.6736C108.669 5.2768 110.118 5.1984 111.571 5.3088C113.363 5.4432 115.045 5.9456 116.542 6.9776C118.182 8.1072 119.222 9.672 119.853 11.5328C119.942 11.7952 120.021 12.0608 120.104 12.3248C120.107 12.336 120.099 12.3552 120.091 12.4016ZM3.87199 20.4592V15.3312H27.752C28.1328 15.3312 28.1344 15.3328 28.1344 15.7104C28.1344 17.2064 28.1296 18.704 28.1392 20.2C28.1408 20.4176 28.0768 20.4768 27.8608 20.4768C19.9536 20.472 12.048 20.472 4.14079 20.472C4.05599 20.472 3.97119 20.464 3.87199 20.4592ZM3.95519 25.2048H28.1696V30.2896H4.29919C3.94079 30.2896 3.94079 30.2896 3.94079 29.9152L3.93759 25.4512C3.93759 25.376 3.94879 25.2992 3.95519 25.2048ZM28.3328 10.4848H4.14079V5.4256H28.3328V10.4848ZM57.7568 7.4688V28.224L47.4352 17.8752L57.7568 7.4688ZM45.184 15.7472L35 5.376H55.6832L45.184 15.7472ZM55.464 30.2784H34.9152L45.224 19.9488L55.464 30.2784ZM32.688 28.0608L32.5904 7.5056L42.8848 17.8528L32.688 28.0608ZM100.779 48.5456C99.9792 48.5456 99.1968 48.5504 98.416 48.5376C98.336 48.536 98.24 48.4368 98.1824 48.36C96.6288 46.288 95.0816 44.2112 93.5312 42.1376C93.472 42.0576 93.4064 41.9824 93.2944 41.8448V48.5264H91.024V38.3344C91.8 38.3344 92.5648 38.3296 93.328 38.3424C93.4048 38.344 93.4944 38.4496 93.5504 38.528C95.1088 40.6288 96.664 42.7312 98.2208 44.8336C98.2912 44.928 98.3664 45.0208 98.44 45.1136C98.4627 45.107 98.4857 45.1011 98.5088 45.096V38.3488H100.779V48.5456ZM146.784 43.1008H152.099C152.106 43.1872 152.117 43.2784 152.117 43.3696C152.118 44.5088 152.106 45.6496 152.126 46.7888C152.131 47.064 152.032 47.2112 151.813 47.3488C150.934 47.9008 149.973 48.2416 148.97 48.464C147.294 48.8368 145.627 48.824 143.992 48.2496C142.037 47.5632 140.902 46.1664 140.622 44.1344C140.395 42.488 140.802 40.9872 142.016 39.7888C142.861 38.9536 143.902 38.4672 145.075 38.2864C146.418 38.08 147.76 38.0784 149.08 38.4416C150.432 38.8144 151.442 39.5888 151.899 40.968C151.907 40.9924 151.913 41.0176 151.917 41.0432C151.918 41.0592 151.912 41.0768 151.904 41.1264C151.342 41.2144 150.763 41.2672 150.205 41.4048C149.723 41.5232 149.461 41.4368 149.203 40.968C148.877 40.376 148.259 40.0928 147.594 39.968C146.605 39.784 145.637 39.8464 144.726 40.3072C143.744 40.8048 143.264 41.64 143.138 42.7152C143.059 43.3904 143.101 44.048 143.286 44.6992C143.64 45.9376 144.504 46.6336 145.725 46.8928C147.042 47.1728 148.27 46.856 149.435 46.2288C149.592 46.144 149.658 46.04 149.65 45.8576C149.635 45.512 149.645 45.1648 149.645 44.7696H146.787C146.784 44.184 146.784 43.648 146.784 43.1008ZM133.026 48.7056C131.744 48.6928 130.501 48.5056 129.378 47.8368C127.982 47.0048 127.219 45.776 127.059 44.1568C126.968 43.2352 127.022 42.3296 127.338 41.4624C127.567 40.7967 127.946 40.1929 128.447 39.6983C128.948 39.2037 129.557 38.8317 130.226 38.6112C132.176 37.928 134.158 37.936 136.07 38.7568C137.864 39.5264 138.818 40.9376 138.97 42.8928C139.053 43.9536 138.938 44.976 138.454 45.9296C137.803 47.2144 136.718 47.9776 135.365 48.3872C134.606 48.6113 133.817 48.7187 133.026 48.7056ZM129.493 43.4112L129.536 43.424C129.558 43.6576 129.579 43.8896 129.605 44.1216C129.722 45.1728 130.213 45.992 131.139 46.5216C131.907 46.96 132.746 47.0576 133.61 46.9472C134.787 46.7968 135.874 46.096 136.261 44.8304C136.475 44.1312 136.514 43.4128 136.419 42.6912C136.27 41.5632 135.768 40.5392 134.357 40.0768C133.468 39.7798 132.505 39.7866 131.621 40.096C130.723 40.4016 130.072 41 129.786 41.9136C129.632 42.3968 129.586 42.912 129.493 43.4112ZM114.966 43.4432C114.942 44.7056 114.65 45.8688 113.795 46.84C112.965 47.7872 111.901 48.3312 110.678 48.5344C109.977 48.6532 109.265 48.7052 108.554 48.6896C107.15 48.6512 105.824 48.3136 104.702 47.4032C103.701 46.5888 103.165 45.5296 103.022 44.2528C102.914 43.272 102.96 42.304 103.318 41.3824C103.859 39.9888 104.878 39.0368 106.28 38.568C108.112 37.9552 109.976 37.9632 111.789 38.6528C113.448 39.2832 114.502 40.4848 114.843 42.2528C114.922 42.6432 114.928 43.0464 114.966 43.4432ZM105.442 43.384L105.493 43.4C105.517 43.6592 105.534 43.9184 105.565 44.176C105.69 45.1968 106.176 45.9904 107.074 46.5104C107.848 46.96 108.694 47.0704 109.565 46.9456C110.731 46.7776 111.648 46.224 112.11 45.0944C112.49 44.1664 112.491 43.1984 112.28 42.2304C112.04 41.136 111.362 40.4272 110.306 40.0752C109.509 39.8122 108.652 39.791 107.843 40.0144C106.853 40.2752 106.099 40.8496 105.768 41.8448C105.603 42.3408 105.547 42.8704 105.442 43.384ZM21.344 38.1248C22.6672 38.1584 23.9408 38.36 25.088 39.0672C26.408 39.88 27.1584 41.0592 27.3376 42.6016C27.4496 43.5712 27.4064 44.5264 27.0656 45.448C26.56 46.8128 25.5744 47.7312 24.2336 48.2208C22.3248 48.9184 20.3824 48.9184 18.4848 48.1776C16.8448 47.5376 15.8016 46.3296 15.5168 44.5744C15.3072 43.28 15.36 41.9824 16.0336 40.8048C16.864 39.3552 18.1616 38.5552 19.7936 38.288C20.304 38.2048 20.8256 38.1776 21.344 38.1248ZM17.912 43.3984L17.9504 43.4048C17.9584 43.5872 17.96 43.7696 17.9776 43.952C18.064 44.8176 18.344 45.5936 19.0368 46.168C20.048 47.0064 21.216 47.1552 22.448 46.856C23.5968 46.576 24.3744 45.864 24.6944 44.7008C24.8912 43.9856 24.9024 43.2592 24.7904 42.5328C24.616 41.392 24.0224 40.5552 22.92 40.1376C21.986 39.7778 20.954 39.7647 20.0112 40.1008C19.0496 40.432 18.3824 41.0896 18.1296 42.0976C18.0224 42.52 17.9824 42.9632 17.912 43.3984ZM85.8912 42.3408V38.3472H88.3088V48.5264H85.896V44.0752H80.9536V48.5232H78.4912V38.3504H80.9392V42.3392L85.8912 42.3408ZM168.63 48.5328H159.285V38.3536H168.429C168.429 38.8704 168.432 39.3888 168.424 39.9072C168.424 39.9424 168.35 39.9952 168.302 40.0064C168.227 40.024 168.147 40.0144 168.069 40.0144H161.762V42.336H167.949V43.9984H161.771V46.8368H168.634C168.63 47.4128 168.63 47.9584 168.63 48.5328ZM54.4368 48.5312V38.352H63.5472C63.5472 38.8624 63.5504 39.3648 63.5408 39.8672C63.5392 39.9152 63.4592 39.9888 63.4048 40.0048C63.3152 40.0288 63.2144 40.0144 63.1184 40.0144L57.1104 40.0192C57.0352 40.0192 56.9584 40.0304 56.8608 40.0384C56.8608 40.7616 56.856 41.464 56.8688 42.1664C56.8704 42.2256 56.968 42.2992 57.0384 42.3344C57.0944 42.3632 57.1744 42.3424 57.2448 42.3424L62.6784 42.344H63.064V44.0064H62.7616C60.8976 44.0064 59.0352 44.0096 57.1712 44.0016C56.9392 44 56.8496 44.056 56.8544 44.3056C56.8688 45.0624 56.8672 45.8192 56.856 46.576C56.8528 46.792 56.9184 46.8544 57.136 46.8544C59.2784 46.8464 61.4192 46.8496 63.5616 46.8496H63.7872V48.5328L54.4368 48.5312ZM179.866 41.2112L177.424 41.2976C177.29 40.824 177.12 40.3712 176.667 40.1504C176.358 39.9954 176.026 39.8937 175.683 39.8496C175.026 39.7776 174.362 39.7872 173.73 40.0336C173.352 40.1808 172.99 40.3776 172.992 40.8416C172.994 41.312 173.342 41.5568 173.742 41.6672C174.659 41.9184 175.592 42.1104 176.507 42.3632C177.214 42.5584 177.931 42.752 178.598 43.048C179.638 43.5088 180.214 44.3424 180.218 45.5056C180.222 46.616 179.669 47.416 178.749 47.9824C178.07 48.4 177.309 48.5952 176.526 48.64C175.739 48.6864 174.944 48.6976 174.158 48.6384C173.038 48.5536 171.994 48.2224 171.186 47.3792C170.621 46.7904 170.322 46.0736 170.213 45.2416L172.573 45.0528C172.63 45.224 172.674 45.3728 172.728 45.5152C172.97 46.1536 173.403 46.6128 174.056 46.8192C174.931 47.101 175.874 47.0909 176.742 46.7904C177.104 46.6688 177.402 46.4448 177.611 46.1168C177.901 45.6608 177.829 45.0944 177.355 44.8448C176.884 44.6132 176.387 44.4376 175.875 44.3216C174.794 44.048 173.682 43.8992 172.635 43.4864C172.014 43.2416 171.474 42.8864 171.085 42.3408C170.29 41.2288 170.605 39.7632 171.803 38.9584C172.443 38.5333 173.184 38.284 173.95 38.2352C174.617 38.1819 175.287 38.1653 175.955 38.1856C176.765 38.216 177.557 38.3792 178.28 38.7696C179.118 39.2256 179.795 40.0048 179.866 41.2112ZM11.3568 44.8208L13.7136 45.44C13.5129 46.0974 13.1692 46.7023 12.7072 47.2112C11.888 48.1008 10.8272 48.4944 9.66399 48.6416C8.58559 48.7792 7.50719 48.744 6.47039 48.3856C4.55839 47.7248 3.32159 46.4592 3.05119 44.3952C2.89279 43.1872 2.98559 42.0016 3.54719 40.8928C4.15679 39.688 5.15199 38.9072 6.41759 38.5088C7.98719 38.0128 9.58079 37.9936 11.1488 38.5472C12.3216 38.9616 13.176 39.7344 13.6208 40.9168C13.6416 40.9728 13.6528 41.032 13.6736 41.1088L11.304 41.576C11.2768 41.5472 11.2528 41.5312 11.2448 41.5088C10.936 40.6464 10.3056 40.1424 9.43199 39.9616C8.35519 39.7392 7.33919 39.8816 6.46879 40.6208C5.98399 41.0336 5.73759 41.584 5.62879 42.1968C5.44959 43.2176 5.44479 44.2368 5.80159 45.2256C6.17439 46.264 6.97439 46.7984 8.02719 46.9344C8.48159 46.9936 8.97119 46.9664 9.41919 46.8672C10.3088 46.6704 10.8768 46.0704 11.2064 45.2336C11.2544 45.1072 11.2992 44.9776 11.3568 44.8208ZM76.192 41.1168L73.8592 41.5744C73.6848 41.288 73.552 41.0016 73.3584 40.7648C72.9248 40.2336 72.328 39.9792 71.6608 39.9024C70.8672 39.8096 70.1008 39.9088 69.4016 40.3312C68.792 40.6992 68.4096 41.2384 68.2368 41.928C67.9584 43.04 67.9648 44.1472 68.3456 45.232C68.712 46.2736 69.52 46.8048 70.5744 46.9376C71.0368 46.9952 71.5344 46.9648 71.9904 46.8592C72.9344 46.6416 73.4896 45.9744 73.8064 45.0864L73.88 44.864C73.8832 44.856 73.8928 44.8528 73.9216 44.8256L76.264 45.4416C75.792 46.8224 74.9584 47.8288 73.5872 48.3008C71.7744 48.9232 69.9616 48.904 68.224 48.0576C66.7392 47.3344 65.8304 46.1392 65.6064 44.4736C65.464 43.4112 65.5056 42.3584 65.8896 41.3456C66.1122 40.7337 66.4651 40.1775 66.924 39.7156C67.3829 39.2536 67.9368 38.897 68.5472 38.6704C70.3792 37.9568 72.24 37.9296 74.0704 38.7088C74.5699 38.9163 75.0182 39.23 75.3843 39.6282C75.7504 40.0263 76.0254 40.4993 76.1904 41.0144C76.1968 41.0384 76.192 41.0656 76.192 41.1168ZM31.168 41.4656L28.8656 41.2816C28.9 40.7781 29.0535 40.2901 29.3136 39.8576C29.7328 39.1376 30.4032 38.752 31.1744 38.5296C32.496 38.1488 33.8208 38.1424 35.1008 38.6832C36.0016 39.064 36.6544 39.7072 36.8208 40.7184C36.9456 41.48 36.7408 42.1776 36.3296 42.8224C35.7872 43.6752 35.0176 44.2976 34.2304 44.904C33.7136 45.3024 33.2016 45.7056 32.6992 46.1216C32.504 46.2832 32.344 46.488 32.112 46.7296H36.8272V48.5312H28.5744C28.6874 47.595 29.1298 46.7296 29.8224 46.0896C30.6752 45.2864 31.5936 44.552 32.4896 43.7936C33.0784 43.2944 33.736 42.8688 34.1856 42.2208C34.4304 41.8672 34.5632 41.472 34.4976 41.04C34.4016 40.4096 34.0352 40.0464 33.3904 39.9312C32.7456 39.816 32.1216 39.8336 31.6128 40.328C31.3072 40.6224 31.232 41.0176 31.168 41.4656ZM49.0848 48.5328H46.6432V40.032H42.9712V38.344H52.7184V40.016H49.0848V48.5328ZM119.466 46.84H125.666V48.5264H117.046V38.432H119.466V46.84ZM154.416 38.3472H156.816V48.528H154.416V38.3472Z"/>
<path d="M80.76 13.0368V23.072H70.7136V13.0368H80.76Z"/>
</svg>
